<svg id="Camada_1" data-name="Camada 1" xmlns="http://www.w3.org/2000/svg" width="165.636" height="46.225" viewBox="0 0 165.636 46.225">
  <g id="Grupo_10" data-name="Grupo 10" transform="translate(0)">
    <g id="Grupo_9" data-name="Grupo 9" transform="translate(0 13.745)">
      <path id="Caminho_28" data-name="Caminho 28" d="M11.853,75.393a8.415,8.415,0,0,0,6.8-3.51l2.326,2.326a11.073,11.073,0,0,1-9.129,4.477,11.853,11.853,0,0,1,0-23.706,11.1,11.1,0,0,1,9.084,4.477l-2.281,2.326a8.421,8.421,0,0,0-6.8-3.51c-4.7,0-8.122,3.776-8.122,8.56s3.424,8.56,8.122,8.56Z" transform="translate(0 -46.207)" fill="#fff"/>
      <path id="Caminho_29" data-name="Caminho 29" d="M61.284,56.06l7.241,19.311L75.766,56.06h4.169l-9,22.826H66.108l-9-22.826h4.169Z" transform="translate(-33.719 -46.845)" fill="#fff"/>
      <path id="Caminho_30" data-name="Caminho 30" d="M127.291,33.56v13.3a8.6,8.6,0,0,1,7.9-4.522c5.66,0,9,3.993,9,9.22V65.6h-3.731V52.433c0-3.907-1.319-6.8-6.144-6.8-4.346,0-7.024,2.855-7.024,7.68V65.6H123.56V33.56Z" transform="translate(-72.953 -33.56)" fill="#fff"/>
      <path id="Caminho_31" data-name="Caminho 31" d="M194.935,64.558h6.586v-.79c0-3.51-1.1-5.353-5.75-5.353a10.677,10.677,0,0,0-7.155,2.634L186.6,58.5a12.816,12.816,0,0,1,9.392-3.51c6.275,0,9.26,3.555,9.26,8.777V78.254h-3.731V75.313c-1.536,2.064-4.215,3.379-7.9,3.379-4.346,0-8.646-2.24-8.646-7.462s3.952-6.672,9.965-6.672Zm0,10.841c2.986,0,6.586-1.536,6.586-5.046V67.367h-4.829c-5.66,0-7.987,1.229-7.987,4.083,0,2.548,2.15,3.948,6.234,3.948Z" transform="translate(-109.211 -46.213)" fill="#fff"/>
      <path id="Caminho_32" data-name="Caminho 32" d="M265.849,78.886V74.8a8.605,8.605,0,0,1-7.9,4.522c-5.66,0-9-3.993-9-9.22V56.06h3.731V69.228c0,3.948,1.315,6.8,6.144,6.8,4.3,0,7.024-2.855,7.024-7.68V56.06h3.731V78.886h-3.731Z" transform="translate(-146.986 -46.845)" fill="#fff"/>
      <path id="Caminho_33" data-name="Caminho 33" d="M321.115,54.99a10.488,10.488,0,0,1,8.822,4.432l-2.589,2.15a8.261,8.261,0,0,0-6.451-3.293c-2.982,0-4.7,1.229-4.7,2.765,0,2.2,1.626,2.855,5.443,3.6,6.5,1.315,8.47,3.641,8.47,7.331s-2.679,6.717-8.777,6.717c-4.346,0-8.122-1.581-10.006-4.739l2.589-2.24A9.333,9.333,0,0,0,321.25,75.4c2.765,0,5.312-.922,5.312-3.248,0-2.2-1.36-3.424-5.705-4.124-4.784-.79-8.294-2.412-8.294-6.672,0-3.817,3.334-6.365,8.56-6.365Z" transform="translate(-183.817 -46.213)" fill="#fff"/>
    </g>
    <path id="Caminho_34" data-name="Caminho 34" d="M346.56,0V14.835h1.208V1.2H369.05V22.486H355.386v1.208h14.868V0H346.56Zm16.2,16.2V7.5h-8.7v8.7Zm-7.5-7.5h6.291V14.99h-6.291V8.7Z" transform="translate(-204.618)" fill="#fff"/>
  </g>
</svg>
