<svg id="Layer_1" data-name="Layer 1" xmlns="http://www.w3.org/2000/svg" width="187.124" height="68.27" viewBox="0 0 187.124 68.27">
  <path id="Caminho_6" data-name="Caminho 6" d="M99.769,0l-67.8,64.472L1.989,29.295,0,30.991,31.775,68.27l69.8-66.376Z" fill="#fff"/>
  <path id="Caminho_7" data-name="Caminho 7" d="M2.234,85.16.77,87.327l32.857,22.207,1.938-1.843" transform="translate(-0.507 -56.101)" fill="#fff"/>
  <path id="Caminho_8" data-name="Caminho 8" d="M146.085,64.943l-4.757-3.214-1.938,1.846,7.357,4.972,46.82-66.472-2.14-1.5Z" transform="translate(-91.826 -0.375)" fill="#fff"/>
  <path id="Caminho_9" data-name="Caminho 9" d="M271.2,105.422a6.55,6.55,0,0,0,5.187-2.542l2.228,2.3a8.649,8.649,0,0,1-7.415,3.549,9.4,9.4,0,1,1,0-18.8,8.676,8.676,0,0,1,7.377,3.549l-2.194,2.331a6.575,6.575,0,0,0-5.187-2.576,6.091,6.091,0,1,0,0,12.182" transform="translate(-172.235 -59.243)" fill="#fff"/>
  <path id="Caminho_10" data-name="Caminho 10" d="M323.555,90.96l5.743,13.748L335.04,90.96h3.655l-7.657,18.1h-3.481L319.9,90.96Z" transform="translate(-210.74 -59.922)" fill="#fff"/>
  <path id="Caminho_11" data-name="Caminho 11" d="M387.22,90.288h3.655V93.56a6.789,6.789,0,0,1,6.439-3.62c4.491,0,8.527,3.863,8.527,9.4s-4.037,9.4-8.527,9.4c-3.307,0-5.327-1.324-6.439-3.412v10.025H387.22Zm9.4,15.14c3.375,0,5.569-2.3,5.569-6.091s-2.194-6.091-5.569-6.091-5.743,2.3-5.743,6.091,2.368,6.091,5.743,6.091" transform="translate(-255.089 -59.25)" fill="#fff"/>
  <path id="Caminho_12" data-name="Caminho 12" d="M459.372,97.171h5.569v-.28c0-2.61-1.426-3.655-4.245-3.655a8.367,8.367,0,0,0-5.289,1.846l-1.948-2.368a10.157,10.157,0,0,1,7.449-2.784c4.979,0,7.691,2.645,7.691,6.961v11.486h-3.655V106.22c-1.15,1.566-3.1,2.5-5.917,2.5-3.446,0-6.927-1.774-6.927-5.569s2.5-5.985,7.275-5.985m.693,8.6c2.716,0,4.873-.87,4.873-3.655V99.747h-4.525c-2.4,0-4.593.628-4.593,3.238,0,1.846,1.706,2.784,4.245,2.784" transform="translate(-297.83 -59.243)" fill="#fff"/>
  <path id="Caminho_13" data-name="Caminho 13" d="M527.19,94.267c-3.969,0-6.265,1.566-6.265,5.395v9.4H517.27V90.96h3.655v3.481c1.218-2.122,3.481-3.481,6.961-3.481v3.307h-.7Z" transform="translate(-340.762 -59.922)" fill="#fff"/>
  <path id="Caminho_14" data-name="Caminho 14" d="M354.24,177.37v2.44a1.565,1.565,0,0,1,1.515-.8,2.222,2.222,0,0,1,0,4.422,1.594,1.594,0,0,1-1.515-.853v.771h-.86V177.37Zm1.351,5.282a1.439,1.439,0,0,0,0-2.866,1.436,1.436,0,0,0,0,2.866" transform="translate(-232.796 -116.846)" fill="#fff"/>
  <path id="Caminho_15" data-name="Caminho 15" d="M372.6,186.669v-.761a1.6,1.6,0,0,1-1.474.843,1.53,1.53,0,0,1-1.679-1.72V182.41h.86v2.457c0,.648.246,1.106,1.065,1.106A1.155,1.155,0,0,0,372.6,184.7V182.41h.86v4.259Z" transform="translate(-243.382 -120.166)" fill="#fff"/>
  <path id="Caminho_16" data-name="Caminho 16" d="M386.051,182.17a1.953,1.953,0,0,1,1.662.672l-.549.556a1.575,1.575,0,0,0-1.153-.433c-.474,0-.631.246-.631.427,0,.246.222.427.942.549.959.164,1.491.427,1.491,1.327,0,.73-.485,1.327-1.7,1.327a2.427,2.427,0,0,1-1.966-.935l.631-.508a1.854,1.854,0,0,0,1.392.662c.433,0,.778-.164.778-.491,0-.27-.13-.525-.972-.662s-1.481-.467-1.481-1.269c0-.7.6-1.222,1.556-1.222" transform="translate(-253.066 -120.008)" fill="#fff"/>
  <path id="Caminho_17" data-name="Caminho 17" d="M398.416,176.89a.556.556,0,1,1-.556.556.552.552,0,0,1,.556-.556m.433,6.142h-.86v-4.259h.86Z" transform="translate(-262.098 -116.53)" fill="#fff"/>
  <path id="Caminho_18" data-name="Caminho 18" d="M405.7,182.252v.761a1.6,1.6,0,0,1,1.474-.843,1.53,1.53,0,0,1,1.679,1.72v2.621h-.86v-2.457c0-.648-.246-1.106-1.065-1.106a1.155,1.155,0,0,0-1.228,1.269v2.293h-.86v-4.259h.86Z" transform="translate(-266.696 -120.008)" fill="#fff"/>
  <path id="Caminho_19" data-name="Caminho 19" d="M422.079,182.17a2.1,2.1,0,0,1,2.129,2.211v.246h-3.382a1.273,1.273,0,0,0,1.334,1.187,1.717,1.717,0,0,0,1.375-.59l.532.532a2.353,2.353,0,0,1-1.907.836,2.212,2.212,0,0,1-.082-4.422m0,.778A1.178,1.178,0,0,0,420.844,184h2.474a1.178,1.178,0,0,0-1.235-1.048" transform="translate(-276.65 -120.008)" fill="#fff"/>
  <path id="Caminho_20" data-name="Caminho 20" d="M436.561,182.17a1.953,1.953,0,0,1,1.662.672l-.549.556a1.575,1.575,0,0,0-1.153-.433c-.474,0-.631.246-.631.427,0,.246.222.427.942.549.959.164,1.491.427,1.491,1.327,0,.73-.485,1.327-1.7,1.327a2.427,2.427,0,0,1-1.966-.935l.631-.508a1.854,1.854,0,0,0,1.392.662c.433,0,.778-.164.778-.491,0-.27-.13-.525-.972-.662s-1.481-.467-1.481-1.269c0-.7.6-1.222,1.556-1.222" transform="translate(-286.341 -120.008)" fill="#fff"/>
  <path id="Caminho_21" data-name="Caminho 21" d="M449.511,182.17a1.953,1.953,0,0,1,1.662.672l-.549.556a1.575,1.575,0,0,0-1.153-.433c-.474,0-.631.246-.631.427,0,.246.222.427.942.549.959.164,1.491.427,1.491,1.327,0,.73-.485,1.327-1.7,1.327a2.427,2.427,0,0,1-1.965-.935l.631-.508a1.854,1.854,0,0,0,1.392.662c.433,0,.778-.164.778-.491,0-.27-.13-.525-.973-.662s-1.481-.467-1.481-1.269c0-.7.6-1.222,1.556-1.222" transform="translate(-294.872 -120.008)" fill="#fff"/>
  <path id="Caminho_22" data-name="Caminho 22" d="M470.943,185.814a1.536,1.536,0,0,0,1.218-.6l.526.539a2.032,2.032,0,0,1-1.744.836,2.213,2.213,0,1,1,0-4.422,2.044,2.044,0,0,1,1.737.836l-.515.549a1.552,1.552,0,0,0-1.218-.6,1.433,1.433,0,0,0,0,2.866" transform="translate(-308.732 -120.008)" fill="#fff"/>
  <path id="Caminho_23" data-name="Caminho 23" d="M484.373,183.873h1.31v-.065c0-.614-.334-.86-1-.86a1.978,1.978,0,0,0-1.245.433l-.457-.556a2.389,2.389,0,0,1,1.754-.655c1.17,0,1.809.621,1.809,1.638v2.7h-.86V186a1.62,1.62,0,0,1-1.392.59c-.812,0-1.631-.416-1.631-1.31s.59-1.409,1.713-1.409m.164,2.023c.638,0,1.147-.2,1.147-.86v-.556h-1.065c-.566,0-1.082.147-1.082.761,0,.433.4.655,1,.655" transform="translate(-317.962 -120.008)" fill="#fff"/>
  <path id="Caminho_24" data-name="Caminho 24" d="M497.99,182.252h.86v.771a1.6,1.6,0,0,1,1.515-.853,2.222,2.222,0,0,1,0,4.422,1.565,1.565,0,0,1-1.515-.8v2.358h-.86v-5.9Zm2.211,3.562a1.439,1.439,0,0,0,0-2.866,1.436,1.436,0,0,0,0,2.866" transform="translate(-328.06 -120.008)" fill="#fff"/>
  <path id="Caminho_25" data-name="Caminho 25" d="M514.366,176.89a.556.556,0,1,1-.556.556.552.552,0,0,1,.556-.556m.433,6.142h-.86v-4.259h.86Z" transform="translate(-338.482 -116.53)" fill="#fff"/>
  <path id="Caminho_26" data-name="Caminho 26" d="M520.169,183.1V180.77h-.819v-.778h.819V178.74h.86v1.252h1.147v.778h-1.147V183.1a.41.41,0,0,0,.444.45.781.781,0,0,0,.621-.246l.427.6a1.476,1.476,0,0,1-1.1.427,1.186,1.186,0,0,1-1.252-1.228" transform="translate(-342.132 -117.748)" fill="#fff"/>
  <path id="Caminho_27" data-name="Caminho 27" d="M532.113,183.873h1.31v-.065c0-.614-.334-.86-1-.86a1.978,1.978,0,0,0-1.245.433l-.457-.556a2.389,2.389,0,0,1,1.754-.655c1.17,0,1.808.621,1.808,1.638v2.7h-.86V186a1.62,1.62,0,0,1-1.392.59c-.812,0-1.631-.416-1.631-1.31s.59-1.409,1.713-1.409m.164,2.023c.638,0,1.147-.2,1.147-.86v-.556h-1.065c-.566,0-1.082.147-1.082.761,0,.433.4.655,1,.655" transform="translate(-349.411 -120.008)" fill="#fff"/>
  <rect id="Retângulo_3" data-name="Retângulo 3" width="0.86" height="5.978" transform="translate(186.264 60.524)" fill="#fff"/>
</svg>
