<svg id="Camada_1" data-name="Camada 1" xmlns="http://www.w3.org/2000/svg" width="1777.843" height="1082" viewBox="0 0 1777.843 1082">
  <path id="Caminho_1" data-name="Caminho 1" d="M1665.02,639.175l-818.754,1.808a320.675,320.675,0,0,0,64.61-72.937Q964.2,485.37,964.209,370.961c0-76.284-17.774-145.035-53.333-200.163S824.562,73.415,758.622,44.049,613.832,0,522.13,0H0V1082H114.386V738.854H522.13c30.182,0,60.353-.21,90.524-.245L856,1082H981.2L736.44,738.516l928.568-.688V1082h112.835V0H1665.008V639.175Zm-1145.969,2.3H114.386V98.933H519.051q162.29,0,246.545,71.106,84.232,71.112,84.238,200.945c0,86.571-28.095,152.009-84.238,199.394q-84.267,71.112-246.545,71.106Z" fill="rgba(255,255,255,0.15)"/>
</svg>
